#N canvas 838 155 1366 696 10;
#X obj -506 -621 vsl 15 128 0 127 0 0 empty empty empty 0 -9 0 10 -262144
-1 -1 0 1;
#X obj -521 -455 random 100;
#X obj -611 -496 inlet;
#X obj -626 -530 cnv 15 70 20 empty empty empty 30 12 0 14 -4034 -66577
0;
#X text -616 -528 RYTHMES;
#X obj -521 -424 +;
#X obj -564 -677 cnv 15 180 20 empty empty empty 20 12 0 14 -257985
-66577 0;
#X obj -552 -332 count 4;
#X obj -562 -308 sel 0 1 2 3;
#X obj -633 -188 spigot;
#X obj -551 -191 spigot;
#X obj -487 -191 spigot;
#X obj -406 -197 spigot;
#X msg -651 -265 0;
#X msg -626 -264 1;
#X msg -579 -266 0;
#X msg -550 -266 1;
#X msg -505 -267 0;
#X msg -476 -268 1;
#X msg -427 -263 0;
#X msg -401 -262 1;
#X obj -618 -468 bng 15 250 50 0 empty empty empty 17 7 0 10 -262144
-1 -1;
#X obj -579 -365 t b b b;
#X floatatom -665 -222 5 0 0 0 - - -;
#X floatatom -580 -223 5 0 0 0 - - -;
#X floatatom -510 -222 5 0 0 0 - - -;
#X floatatom -439 -224 5 0 0 0 - - -;
#X obj -748 -186 random 100;
#X obj -635 -128 +;
#X obj -550 -127 +;
#X obj -482 -128 +;
#X obj -395 -134 +;
#X obj -605 -85 expr ($f1 + $f2 + $f3 + $f4) / 4;
#X obj -605 -52 int;
#X obj -190 -280 count 4;
#X obj -200 -256 sel 0 1 2 3;
#X obj -271 -136 spigot;
#X obj -189 -139 spigot;
#X obj -125 -139 spigot;
#X obj -44 -145 spigot;
#X msg -289 -213 0;
#X msg -264 -212 1;
#X msg -217 -214 0;
#X msg -188 -214 1;
#X msg -143 -215 0;
#X msg -114 -216 1;
#X msg -65 -211 0;
#X msg -39 -210 1;
#X obj -422 -374 t b b;
#X obj -340 -14 outlet;
#X obj -191 -627 vsl 15 128 0 127 0 0 empty empty empty 0 -9 0 10 -262144
-1 -1 0 1;
#X obj -191 -467 * 20;
#X obj -65 -625 vsl 15 128 0 127 0 0 empty empty empty 0 -9 0 10 -262144
-1 -1 0 1;
#X obj -147 -395 * 10;
#X obj -328 -263 +;
#X obj -406 -324 random 2000;
#X text -560 -677 POURCENTAGE ALEATOIRE DUREES;
#X obj -221 -673 cnv 15 90 20 empty empty empty 20 12 0 14 -257985
-66577 0;
#X text -218 -672 DUREE MINIMUM;
#X obj -90 -673 cnv 15 90 20 empty empty empty 20 12 0 14 -257985 -66577
0;
#X text -87 -672 DUREE MAXIMUM;
#X obj -506 -653 ctlin 30;
#X obj -191 -651 ctlin 25;
#X obj -521 -394 moses 120;
#X obj -65 -651 ctlin 122;
#X obj 41 -625 loadbang;
#X msg 41 -597 80;
#X obj -279 -643 loadbang;
#X msg -279 -615 30;
#X obj -427 -637 loadbang;
#X msg -425 -603 60;
#X connect 0 0 5 1;
#X connect 1 0 5 0;
#X connect 2 0 1 0;
#X connect 5 0 63 0;
#X connect 7 0 8 0;
#X connect 8 0 14 0;
#X connect 8 0 15 0;
#X connect 8 0 17 0;
#X connect 8 0 19 0;
#X connect 8 1 16 0;
#X connect 8 1 13 0;
#X connect 8 1 17 0;
#X connect 8 1 19 0;
#X connect 8 2 18 0;
#X connect 8 2 13 0;
#X connect 8 2 15 0;
#X connect 8 2 19 0;
#X connect 8 3 20 0;
#X connect 8 3 13 0;
#X connect 8 3 15 0;
#X connect 8 3 17 0;
#X connect 9 0 28 1;
#X connect 10 0 29 1;
#X connect 11 0 30 1;
#X connect 12 0 31 1;
#X connect 13 0 9 1;
#X connect 14 0 9 1;
#X connect 15 0 10 1;
#X connect 16 0 10 1;
#X connect 17 0 11 1;
#X connect 18 0 11 1;
#X connect 19 0 12 1;
#X connect 20 0 12 1;
#X connect 21 0 1 0;
#X connect 22 0 27 0;
#X connect 22 1 23 0;
#X connect 22 1 24 0;
#X connect 22 1 25 0;
#X connect 22 1 26 0;
#X connect 22 2 7 0;
#X connect 23 0 9 0;
#X connect 24 0 10 0;
#X connect 25 0 11 0;
#X connect 26 0 12 0;
#X connect 27 0 28 0;
#X connect 27 0 29 0;
#X connect 27 0 30 0;
#X connect 27 0 31 0;
#X connect 28 0 32 0;
#X connect 29 0 32 1;
#X connect 30 0 32 2;
#X connect 31 0 32 3;
#X connect 32 0 33 0;
#X connect 33 0 49 0;
#X connect 34 0 35 0;
#X connect 35 0 41 0;
#X connect 35 0 42 0;
#X connect 35 0 44 0;
#X connect 35 0 46 0;
#X connect 35 1 43 0;
#X connect 35 1 40 0;
#X connect 35 1 44 0;
#X connect 35 1 46 0;
#X connect 35 2 45 0;
#X connect 35 2 40 0;
#X connect 35 2 42 0;
#X connect 35 2 46 0;
#X connect 35 3 47 0;
#X connect 35 3 40 0;
#X connect 35 3 42 0;
#X connect 35 3 44 0;
#X connect 36 0 23 0;
#X connect 37 0 24 0;
#X connect 38 0 25 0;
#X connect 39 0 26 0;
#X connect 40 0 36 1;
#X connect 41 0 36 1;
#X connect 42 0 37 1;
#X connect 43 0 37 1;
#X connect 44 0 38 1;
#X connect 45 0 38 1;
#X connect 46 0 39 1;
#X connect 47 0 39 1;
#X connect 48 0 55 0;
#X connect 48 1 34 0;
#X connect 50 0 51 0;
#X connect 51 0 55 1;
#X connect 52 0 53 1;
#X connect 53 0 54 1;
#X connect 54 0 36 0;
#X connect 54 0 37 0;
#X connect 54 0 38 0;
#X connect 54 0 39 0;
#X connect 55 0 54 0;
#X connect 61 0 0 0;
#X connect 62 0 50 0;
#X connect 63 0 22 0;
#X connect 63 1 48 0;
#X connect 64 0 52 0;
#X connect 65 0 66 0;
#X connect 66 0 52 0;
#X connect 67 0 68 0;
#X connect 68 0 50 0;
#X connect 69 0 70 0;
#X connect 70 0 0 0;
