#N canvas 800 32 958 966 10;
#X obj 66 15 tempo;
#X obj 131 58 freqnotes;
#X obj 63 -70 cnv 15 50 20 empty empty empty 30 12 0 14 -257985 -66577
0;
#X text 70 -69 START;
#X obj 66 -12 tgl 15 0 empty empty empty 17 7 0 10 -262144 -1 -1 0
93;
#X obj 276 109 modes2;
#X obj 95 249 makenote;
#X obj 95 315 noteout;
#X floatatom 274 273 5 0 0 0 - - -;
#X obj 274 247 cnv 15 80 20 empty empty empty 30 12 0 14 -257985 -66577
0;
#X text 281 248 CANAL MIDI;
#X obj 173 193 durées;
#X obj 423 249 makenote;
#X obj 423 312 noteout;
#X obj 26 112 rythmes_intensités;
#X obj 26 206 notesnew;
#X obj 526 54 freqnotes2;
#X obj 421 117 rythmes_intensités2;
#X obj 521 184 durées2;
#X obj 421 197 notesnew2;
#X text 364 355 VOIX 2 : Notes pôles uniquement;
#X text 46 357 VOIX 1 : Mode entier;
#X obj 58 -38 ctlin 107;
#X connect 0 1 1 0;
#X connect 0 1 16 0;
#X connect 0 1 17 0;
#X connect 0 2 14 0;
#X connect 1 0 14 1;
#X connect 4 0 0 0;
#X connect 5 0 15 1;
#X connect 5 1 19 1;
#X connect 6 0 7 0;
#X connect 6 1 7 1;
#X connect 8 0 7 2;
#X connect 8 0 13 2;
#X connect 11 0 6 2;
#X connect 12 0 13 0;
#X connect 12 1 13 1;
#X connect 14 0 11 0;
#X connect 14 0 15 0;
#X connect 14 1 6 1;
#X connect 15 0 6 0;
#X connect 16 0 17 1;
#X connect 17 0 18 0;
#X connect 17 0 19 0;
#X connect 17 1 12 1;
#X connect 18 0 12 2;
#X connect 19 0 12 0;
#X connect 22 0 4 0;
