#N canvas 561 129 1362 703 10;
#X obj -8 59 inlet;
#X obj 251 60 inlet;
#X obj -17 12 cnv 15 50 20 empty empty empty 30 12 0 14 -4034 -66577
0;
#X text -12 13 RYTHME;
#X obj 248 11 cnv 15 50 20 empty empty empty 30 12 0 14 -4034 -66577
0;
#X text 257 13 MODES;
#X obj 768 94 vsl 15 128 0 127 0 0 empty empty empty 0 -9 0 10 -262144
-1 -1 0 1;
#X obj 113 111 vsl 15 128 0 127 0 0 empty empty empty 0 -9 0 10 -262144
-1 -1 0 1;
#X obj 716 8 cnv 15 100 20 empty empty empty 30 12 0 14 -257985 -66577
0;
#X obj 827 8 cnv 15 100 20 empty empty empty 30 12 0 14 -257985 -66577
0;
#X obj 83 11 cnv 15 100 20 empty empty empty 30 12 0 14 -257985 -66577
0;
#X text 96 12 % ALEATOIRE;
#X obj 810 394 list length;
#X obj 810 464 random;
#X obj 753 551 list split;
#X obj 781 587 list split 1;
#X obj 9 77 bng 15 250 50 0 empty empty empty 17 7 0 10 -262144 -1
-1;
#X obj 706 291 list split;
#X obj 188 214 list append;
#X msg 188 161 bang;
#X obj 9 161 random 100;
#X obj 9 316 +;
#X floatatom 326 546 5 0 0 0 - - -;
#X obj 15 451 list append;
#X obj 15 602 list split;
#X obj 51 566 spigot;
#X obj 158 607 spigot;
#X obj 113 451 random 2;
#X obj 113 475 sel 0 1;
#X msg 70 538 1;
#X msg 161 573 1;
#X msg 183 573 0;
#X msg 92 538 0;
#X obj 43 635 list split 1;
#X obj 213 538 +;
#X obj 229 454 random 3;
#X obj 230 574 -;
#X obj 858 93 vsl 15 128 0 127 0 0 empty empty empty 0 -9 0 10 -262144
-1 -1 0 1;
#X obj 734 339 list split;
#X obj 661 161 list length;
#X obj 768 257 min;
#X obj 661 189 - 1;
#X obj 849 302 min;
#X obj 891 223 list length;
#X obj 886 255 - 1;
#X obj 733 313 t l b l;
#X text 854 10 AMBITUS;
#X text 81 29 = % de chances de;
#X text 81 41 notes conjointes;
#X text 739 10 TESSITURE;
#X text 722 26 = note la plus;
#X text 722 35 grave;
#X text 828 28 = *à partir de la note la plus grave* \,;
#X text 829 38 quel est l'intervalle maximum au dessus;
#X obj 734 371 t l l l b;
#X obj 385 459 spigot;
#X msg 418 437 1;
#X msg 439 458 0;
#X obj 468 457 spigot;
#X msg 501 435 1;
#X msg 522 456 0;
#X obj 554 454 spigot;
#X msg 587 432 1;
#X msg 608 453 0;
#X obj 636 456 spigot;
#X msg 669 434 1;
#X msg 690 455 0;
#X obj 512 329 sel 0 1 2 3;
#X obj 726 406 count 4;
#X floatatom 385 483 5 0 0 0 - - -;
#X floatatom 468 483 5 0 0 0 - - -;
#X floatatom 554 481 5 0 0 0 - - -;
#X floatatom 636 480 5 0 0 0 - - -;
#X text 448 300 Moyenne des 4 dernières notes;
#X obj 480 518 expr ($f1+$f2+$f3+$f4)/4;
#X obj 480 547 int;
#X obj 87 402 t b b b b b b;
#X msg 251 40 0 2 4 6 8 10;
#X msg 373 361 bang;
#X obj 489 669 outlet;
#X obj 111 81 ctlin 28;
#X obj 752 61 ctlin 27;
#X obj 849 59 ctlin 31;
#X obj 86 369 moses 120;
#X obj 810 430 t b f;
#X obj 671 68 loadbang;
#X msg 671 96 10;
#X obj 963 76 loadbang;
#X msg 963 104 100;
#X obj 179 86 loadbang;
#X msg 179 114 60;
#X connect 0 0 20 0;
#X connect 1 0 18 1;
#X connect 1 0 39 0;
#X connect 6 0 40 0;
#X connect 7 0 21 1;
#X connect 12 0 84 0;
#X connect 13 0 14 1;
#X connect 13 0 55 0;
#X connect 13 0 58 0;
#X connect 13 0 61 0;
#X connect 13 0 64 0;
#X connect 14 1 15 0;
#X connect 15 0 79 0;
#X connect 16 0 20 0;
#X connect 17 1 45 0;
#X connect 18 0 17 0;
#X connect 19 0 18 0;
#X connect 20 0 21 0;
#X connect 21 0 83 0;
#X connect 22 0 36 0;
#X connect 22 0 34 0;
#X connect 23 0 24 0;
#X connect 24 1 33 0;
#X connect 25 0 24 1;
#X connect 25 0 55 0;
#X connect 25 0 58 0;
#X connect 25 0 61 0;
#X connect 25 0 64 0;
#X connect 26 0 24 1;
#X connect 26 0 78 0;
#X connect 26 0 55 0;
#X connect 26 0 58 0;
#X connect 26 0 61 0;
#X connect 26 0 64 0;
#X connect 27 0 28 0;
#X connect 28 0 29 0;
#X connect 28 0 31 0;
#X connect 28 1 32 0;
#X connect 28 1 30 0;
#X connect 29 0 25 1;
#X connect 30 0 26 1;
#X connect 31 0 26 1;
#X connect 32 0 25 1;
#X connect 33 0 79 0;
#X connect 34 0 25 0;
#X connect 35 0 34 1;
#X connect 35 0 36 1;
#X connect 36 0 26 0;
#X connect 37 0 42 0;
#X connect 38 0 54 0;
#X connect 39 0 41 0;
#X connect 40 0 17 1;
#X connect 41 0 40 1;
#X connect 42 0 38 1;
#X connect 43 0 44 0;
#X connect 44 0 42 1;
#X connect 45 0 38 0;
#X connect 45 1 42 0;
#X connect 45 2 43 0;
#X connect 54 0 23 1;
#X connect 54 1 14 0;
#X connect 54 2 12 0;
#X connect 54 3 68 0;
#X connect 55 0 69 0;
#X connect 56 0 55 1;
#X connect 57 0 55 1;
#X connect 58 0 70 0;
#X connect 59 0 58 1;
#X connect 60 0 58 1;
#X connect 61 0 71 0;
#X connect 62 0 61 1;
#X connect 63 0 61 1;
#X connect 64 0 72 0;
#X connect 65 0 64 1;
#X connect 66 0 64 1;
#X connect 67 0 56 0;
#X connect 67 0 60 0;
#X connect 67 0 63 0;
#X connect 67 0 66 0;
#X connect 67 1 59 0;
#X connect 67 1 57 0;
#X connect 67 1 63 0;
#X connect 67 1 66 0;
#X connect 67 2 62 0;
#X connect 67 2 57 0;
#X connect 67 2 60 0;
#X connect 67 2 66 0;
#X connect 67 3 65 0;
#X connect 67 3 57 0;
#X connect 67 3 60 0;
#X connect 67 3 63 0;
#X connect 68 0 67 0;
#X connect 69 0 74 0;
#X connect 70 0 74 1;
#X connect 71 0 74 2;
#X connect 72 0 74 3;
#X connect 74 0 75 0;
#X connect 75 0 22 0;
#X connect 76 0 23 0;
#X connect 76 1 27 0;
#X connect 76 2 34 0;
#X connect 76 2 36 0;
#X connect 76 3 22 0;
#X connect 76 4 35 0;
#X connect 76 5 74 0;
#X connect 77 0 39 0;
#X connect 77 0 18 1;
#X connect 78 0 68 0;
#X connect 80 0 7 0;
#X connect 81 0 6 0;
#X connect 82 0 37 0;
#X connect 83 0 76 0;
#X connect 83 1 19 0;
#X connect 84 0 13 0;
#X connect 84 1 13 1;
#X connect 85 0 86 0;
#X connect 86 0 6 0;
#X connect 87 0 88 0;
#X connect 88 0 37 0;
#X connect 89 0 90 0;
#X connect 90 0 7 0;
