#N canvas 961 89 832 643 10;
#X obj 619 -102 vsl 15 128 0 100 0 0 empty empty empty 0 -9 0 10 -262144
-1 -1 0 1;
#X obj 663 -128 cnv 15 180 20 empty empty empty 20 12 0 14 -257985
-66577 0;
#X obj 378 -95 inlet;
#X obj 366 -120 cnv 15 70 20 empty empty empty 30 12 0 14 -4034 -66577
0;
#X text 372 -119 FREQUENCE;
#X obj 218 -120 cnv 15 70 20 empty empty empty 30 12 0 14 -4034 -66577
0;
#X text 225 -119 TEMPOBASE;
#X obj 235 -92 inlet;
#X text 673 -127 POURCENTAGE ALEATOIRE RYTHME;
#X obj 501 42 hsl 128 15 0 100 0 0 empty empty empty -2 -8 0 10 -262144
-1 -1 0 1;
#X obj 649 42 hsl 128 15 100 0 0 0 empty empty empty -2 -8 0 10 -262144
-1 -1 0 1;
#X obj 235 -54 count 32;
#X obj 235 -1 sel 31 1;
#X obj 232 94 spigot;
#X obj 646 80 * -1;
#X obj 646 114 + 100;
#X obj 232 204 moses 50;
#X obj 232 134 random 100;
#X obj 232 167 +;
#X obj 378 130 random 100;
#X obj 378 165 +;
#X obj 378 204 moses 50;
#X floatatom 235 -25 5 0 0 0 - - -;
#X msg 226 34 0;
#X msg 172 35 1;
#X obj 461 70 - 50;
#X obj 277 433 outlet;
#X obj 262 459 cnv 15 70 20 empty empty empty 20 12 0 14 -233017 -66577
0;
#X text 277 459 RYTHME;
#X text 523 58 % à la reso;
#X text 680 58 % au tempo;
#X obj 541 344 + 30;
#X obj 431 434 outlet;
#X obj 418 458 cnv 15 70 20 empty empty empty 20 12 0 14 -233017 -66577
0;
#X text 421 459 INTENSITES;
#X obj 404 241 t b b;
#X obj 277 240 t b b;
#X obj 402 278 random 5;
#X obj 402 303 sel 0 1 2 3 4;
#X msg 367 356 30;
#X msg 412 356 70;
#X msg 431 374 120;
#X msg 381 374 110;
#X floatatom 415 399 5 0 0 0 - - -;
#X msg 456 356 100;
#X obj 541 315 random 60;
#X obj 619 -128 ctlin 105;
#X obj 531 -115 loadbang;
#X msg 531 -87 60;
#X connect 0 0 9 0;
#X connect 0 0 10 0;
#X connect 2 0 19 0;
#X connect 2 0 13 0;
#X connect 7 0 11 0;
#X connect 9 0 25 0;
#X connect 10 0 14 0;
#X connect 11 0 22 0;
#X connect 12 0 24 0;
#X connect 12 1 23 0;
#X connect 13 0 17 0;
#X connect 14 0 15 0;
#X connect 15 0 18 1;
#X connect 16 1 36 0;
#X connect 17 0 18 0;
#X connect 18 0 16 0;
#X connect 19 0 20 0;
#X connect 20 0 21 0;
#X connect 21 1 35 0;
#X connect 22 0 12 0;
#X connect 23 0 13 1;
#X connect 24 0 13 1;
#X connect 25 0 20 1;
#X connect 31 0 32 0;
#X connect 35 0 26 0;
#X connect 35 1 45 0;
#X connect 36 0 26 0;
#X connect 36 1 37 0;
#X connect 37 0 38 0;
#X connect 38 0 39 0;
#X connect 38 1 40 0;
#X connect 38 2 44 0;
#X connect 38 3 42 0;
#X connect 38 4 41 0;
#X connect 39 0 43 0;
#X connect 40 0 43 0;
#X connect 41 0 43 0;
#X connect 42 0 43 0;
#X connect 43 0 32 0;
#X connect 44 0 43 0;
#X connect 45 0 31 0;
#X connect 46 0 0 0;
#X connect 47 0 48 0;
#X connect 48 0 0 0;
