#N canvas 607 219 1168 562 10;
#X obj 369 -193 vsl 15 128 127 0 0 0 empty empty empty 0 -9 0 10 -262144
-1 -1 4700 1;
#X floatatom 180 -223 5 0 120 0 - - -;
#X obj 180 -194 / 60;
#X obj 180 -161 * 1000;
#X obj 224 -74 metro 120;
#X obj 210 183 cnv 15 50 20 empty empty empty 20 12 0 14 -233017 -66577
0;
#X text 217 184 TEMPO;
#X obj 720 214 cnv 15 70 20 empty empty empty 20 12 0 14 -233017 -66577
0;
#X text 724 215 RESOLUTION;
#X obj 741 -120 hradio 15 1 0 7 empty empty empty 0 -8 0 10 -262144
-1 -1 4;
#X obj 746 -180 hsl 128 15 0 127 0 0 empty empty empty -2 -8 0 10 -262144
-1 -1 8000 1;
#X obj 742 -152 / 18;
#X obj 742 -91 sel 0 1 2 3 4 5 6;
#X floatatom 122 3 5 0 0 0 - - -;
#X obj 122 32 sel 0;
#X floatatom 195 5 5 0 0 0 - - -;
#X obj 195 34 sel 0;
#X floatatom 257 3 5 0 0 0 - - -;
#X obj 257 32 sel 0;
#X floatatom 322 2 5 0 0 0 - - -;
#X obj 322 31 sel 0;
#X floatatom 379 5 5 0 0 0 - - -;
#X obj 379 34 sel 0;
#X floatatom 445 7 5 0 0 0 - - -;
#X obj 445 36 sel 0;
#X floatatom 510 5 5 0 0 0 - - -;
#X obj 510 34 sel 0;
#X obj 92 75 s 4croche;
#X obj 168 73 s 3croche;
#X obj 244 76 s 2croche;
#X obj 316 76 s croche;
#X obj 377 76 s noire;
#X obj 446 76 s blanche;
#X obj 518 76 s ronde;
#X obj 629 -32 r 4croche;
#X obj 616 114 spigot;
#X msg 634 13 1;
#X msg 651 16 0;
#X obj 693 -31 r 3croche;
#X obj 760 -31 r 2croche;
#X obj 824 -30 r croche;
#X obj 883 -29 r noire;
#X obj 934 -29 r blanche;
#X obj 997 -28 r ronde;
#X obj 686 117 spigot;
#X obj 759 118 spigot;
#X obj 813 118 spigot;
#X obj 870 120 spigot;
#X obj 924 119 spigot;
#X obj 979 124 spigot;
#X msg 704 12 1;
#X msg 770 18 1;
#X msg 827 18 1;
#X msg 890 17 1;
#X msg 944 19 1;
#X msg 999 19 1;
#X msg 722 11 0;
#X msg 787 16 0;
#X msg 848 18 0;
#X msg 906 14 0;
#X msg 963 16 0;
#X msg 1022 17 0;
#X obj 813 183 bng 15 250 50 0 empty empty empty 17 7 0 10 -262144
-1 -1;
#X obj 802 215 outlet;
#X obj 276 128 r noire;
#X obj 276 156 bng 15 250 50 0 empty empty empty 17 7 0 10 -262144
-1 -1;
#X obj 276 184 outlet;
#X obj 65 -141 cnv 15 50 20 empty empty empty 20 12 0 14 -4034 -66577
0;
#X text 72 -139 START;
#X obj 419 -232 cnv 15 50 20 empty empty empty 30 12 0 14 -257985 -66577
0;
#X text 432 -230 TEMPO;
#X obj 783 -217 cnv 15 70 20 empty empty empty 30 12 0 14 -257985 -66577
0;
#X text 794 -217 RESOLUTION;
#X obj 20 -17 s tempobase;
#X obj 1032 183 r tempobase;
#X obj 1032 211 outlet;
#X obj 949 210 cnv 15 70 20 empty empty empty 20 12 0 14 -233017 -66577
0;
#X text 953 211 TEMPOBASE;
#X obj 160 -123 / 32;
#X obj 122 -24 count 2;
#X obj 193 -23 count 4;
#X obj 256 -24 count 8;
#X obj 320 -27 count 16;
#X obj 377 -24 count 32;
#X obj 443 -23 count 64;
#X obj 508 -25 count 128;
#X obj 73 -111 inlet;
#X obj 379 -231 ctlin 58;
#X obj 742 -216 ctlin 59;
#X obj 487 -189 loadbang;
#X obj 945 -197 loadbang;
#X msg 949 -169 40;
#X msg 485 -165 70;
#X connect 0 0 1 0;
#X connect 1 0 2 0;
#X connect 2 0 3 0;
#X connect 3 0 78 0;
#X connect 4 0 79 0;
#X connect 4 0 80 0;
#X connect 4 0 81 0;
#X connect 4 0 82 0;
#X connect 4 0 83 0;
#X connect 4 0 84 0;
#X connect 4 0 85 0;
#X connect 4 0 73 0;
#X connect 9 0 12 0;
#X connect 10 0 11 0;
#X connect 11 0 9 0;
#X connect 12 0 36 0;
#X connect 12 0 37 0;
#X connect 12 1 50 0;
#X connect 12 1 56 0;
#X connect 12 2 51 0;
#X connect 12 2 57 0;
#X connect 12 3 52 0;
#X connect 12 3 58 0;
#X connect 12 4 53 0;
#X connect 12 4 59 0;
#X connect 12 5 54 0;
#X connect 12 5 60 0;
#X connect 12 6 55 0;
#X connect 12 6 61 0;
#X connect 13 0 14 0;
#X connect 14 0 27 0;
#X connect 15 0 16 0;
#X connect 16 0 28 0;
#X connect 17 0 18 0;
#X connect 18 0 29 0;
#X connect 19 0 20 0;
#X connect 20 0 30 0;
#X connect 21 0 22 0;
#X connect 22 0 31 0;
#X connect 23 0 24 0;
#X connect 24 0 32 0;
#X connect 25 0 26 0;
#X connect 26 0 33 0;
#X connect 34 0 35 0;
#X connect 35 0 62 0;
#X connect 36 0 35 1;
#X connect 37 0 44 1;
#X connect 37 0 45 1;
#X connect 37 0 46 1;
#X connect 37 0 47 1;
#X connect 37 0 48 1;
#X connect 37 0 49 1;
#X connect 38 0 44 0;
#X connect 39 0 45 0;
#X connect 40 0 46 0;
#X connect 41 0 47 0;
#X connect 42 0 48 0;
#X connect 43 0 49 0;
#X connect 44 0 62 0;
#X connect 45 0 62 0;
#X connect 46 0 62 0;
#X connect 47 0 62 0;
#X connect 48 0 62 0;
#X connect 49 0 62 0;
#X connect 50 0 44 1;
#X connect 51 0 45 1;
#X connect 52 0 46 1;
#X connect 53 0 47 1;
#X connect 54 0 48 1;
#X connect 55 0 49 1;
#X connect 56 0 35 1;
#X connect 56 0 45 1;
#X connect 56 0 46 1;
#X connect 56 0 47 1;
#X connect 56 0 48 1;
#X connect 56 0 49 1;
#X connect 57 0 35 1;
#X connect 57 0 44 1;
#X connect 57 0 46 1;
#X connect 57 0 47 1;
#X connect 57 0 48 1;
#X connect 57 0 49 1;
#X connect 58 0 35 1;
#X connect 58 0 44 1;
#X connect 58 0 45 1;
#X connect 58 0 47 1;
#X connect 58 0 48 1;
#X connect 58 0 49 1;
#X connect 59 0 35 1;
#X connect 59 0 44 1;
#X connect 59 0 45 1;
#X connect 59 0 46 1;
#X connect 59 0 48 1;
#X connect 59 0 49 1;
#X connect 60 0 35 1;
#X connect 60 0 44 1;
#X connect 60 0 45 1;
#X connect 60 0 46 1;
#X connect 60 0 47 1;
#X connect 60 0 49 1;
#X connect 61 0 35 1;
#X connect 61 0 44 1;
#X connect 61 0 45 1;
#X connect 61 0 46 1;
#X connect 61 0 47 1;
#X connect 61 0 48 1;
#X connect 62 0 63 0;
#X connect 64 0 65 0;
#X connect 65 0 66 0;
#X connect 74 0 75 0;
#X connect 78 0 4 1;
#X connect 79 0 13 0;
#X connect 80 0 15 0;
#X connect 81 0 17 0;
#X connect 82 0 19 0;
#X connect 83 0 21 0;
#X connect 84 0 23 0;
#X connect 85 0 25 0;
#X connect 86 0 4 0;
#X connect 87 0 0 0;
#X connect 88 0 10 0;
#X connect 89 0 92 0;
#X connect 90 0 91 0;
#X connect 91 0 10 0;
#X connect 92 0 0 0;
